# xmcd CD database file
#
# Track frame offsets:
#	150
#	23909
#	45650
#	64072
#	82349
#	107099
#	137378
#	160346
#	180248
#	209530
#	235797
#
# Disc length: 3427 seconds
#
# Revision: 0
# Processed by: cddbd v1.5.1PL0 Copyright (c) Steve Scherf et al.
# Submitted via: CDex 1.51
#
DISCID=8f0d610b
DTITLE=Sheryl Bailey - Little Misunderstood
DYEAR=1995
DGENRE=Jazz
TTITLE0=Honk
TTITLE1=Enigma
TTITLE2=Go Go a Go Go
TTITLE3=Nardis
TTITLE4=Caravan
TTITLE5=Gus
TTITLE6=Shells Unshattered
TTITLE7=Waltz for NK
TTITLE8=Early Stages
TTITLE9=Ood Oov
TTITLE10=Little Misunderstood
EXTD=YEAR: 1995
EXTT0=
EXTT1=
EXTT2=
EXTT3=
EXTT4=
EXTT5=
EXTT6=
EXTT7=
EXTT8=
EXTT9=
EXTT10=
PLAYORDER=
